<svg id="Группа_1" data-name="Группа 1" xmlns="http://www.w3.org/2000/svg" width="47.031" height="47" viewBox="0 0 47.031 47">
  <metadata><?xpacket begin="﻿" id="W5M0MpCehiHzreSzNTczkc9d"?>
<x:xmpmeta xmlns:x="adobe:ns:meta/" x:xmptk="Adobe XMP Core 5.6-c138 79.159824, 2016/09/14-01:09:01        ">
   <rdf:RDF xmlns:rdf="http://www.w3.org/1999/02/22-rdf-syntax-ns#">
      <rdf:Description rdf:about=""/>
   </rdf:RDF>
</x:xmpmeta>
                                                                                                    
                                                                                                    
                                                                                                    
                                                                                                    
                                                                                                    
                                                                                                    
                                                                                                    
                                                                                                    
                                                                                                    
                                                                                                    
                                                                                                    
                                                                                                    
                                                                                                    
                                                                                                    
                                                                                                    
                                                                                                    
                                                                                                    
                                                                                                    
                                                                                                    
                                                                                                    
                           
<?xpacket end="w"?></metadata>
<defs>
    <style>
      .cls-1 {
        fill: #3984f3;
      }

      .cls-2 {
        fill: #fff;
        fill-rule: evenodd;
      }
    </style>
  </defs>
  <circle id="Ellipse_4_copy_3" data-name="Ellipse 4 copy 3" class="cls-1" cx="23.515" cy="23.5" r="23.515"/>
  <path class="cls-2" d="M863.694,6811.85a2.625,2.625,0,0,0-1.562-.91,113.07,113.07,0,0,0-15.179,0,2.727,2.727,0,0,0-1.334.66c-1.62,1.47-1.113,9.37-.722,10.65a2.775,2.775,0,0,0,.644,1.21,2.618,2.618,0,0,0,1.357.7,99.266,99.266,0,0,0,15.2.04,2.647,2.647,0,0,0,1.4-.7C865,6822.04,864.893,6813.7,863.694,6811.85Zm-11.161,8.27v-5.53c2,0.93,3.553,1.82,5.388,2.78C856.408,6818.19,854.535,6819.11,852.533,6820.12Z" transform="translate(-831 -6793)"/>
</svg>
